<svg class="animated" id="freepik_stories-drone" xmlns="http://www.w3.org/2000/svg" viewBox="0 0 750 500" version="1.1" xmlns:xlink="http://www.w3.org/1999/xlink" xmlns:svgjs="http://svgjs.com/svgjs"><style>svg#freepik_stories-drone:not(.animated) .animable {opacity: 0;}svg#freepik_stories-drone.animated #freepik--background-simple--inject-4 {animation: 2.3s 1 forwards cubic-bezier(.36,-0.01,.5,1.38) zoomIn,3s Infinite  linear floating;animation-delay: 0s,2.3s;}svg#freepik_stories-drone.animated #elhr01epy9fg4 {animation: 2.6s 1 forwards cubic-bezier(.36,-0.01,.5,1.38) slideRight;animation-delay: 0s;}svg#freepik_stories-drone.animated #elvx51lmos5m {animation: 2.6s 1 forwards cubic-bezier(.36,-0.01,.5,1.38) slideRight;animation-delay: 0.1625s;opacity: 0}svg#freepik_stories-drone.animated #elc98122wlr1r {animation: 2.6s 1 forwards cubic-bezier(.36,-0.01,.5,1.38) slideRight;animation-delay: 0.325s;opacity: 0}svg#freepik_stories-drone.animated #ely5ievo24u7b {animation: 2.6s 1 forwards cubic-bezier(.36,-0.01,.5,1.38) slideRight;animation-delay: 0.48750000000000004s;opacity: 0}svg#freepik_stories-drone.animated #el2n6d5o8qouo {animation: 2.6s 1 forwards cubic-bezier(.36,-0.01,.5,1.38) slideRight;animation-delay: 0.65s;opacity: 0}svg#freepik_stories-drone.animated #elxmj84vvy4r9 {animation: 2.6s 1 forwards cubic-bezier(.36,-0.01,.5,1.38) slideRight;animation-delay: 0.8125s;opacity: 0}svg#freepik_stories-drone.animated #el3qk8tf1gpi8 {animation: 2.6s 1 forwards cubic-bezier(.36,-0.01,.5,1.38) slideRight;animation-delay: 0.9750000000000001s;opacity: 0}svg#freepik_stories-drone.animated #elyypcdbqeo5f {animation: 2.6s 1 forwards cubic-bezier(.36,-0.01,.5,1.38) slideRight;animation-delay: 1.1375s;opacity: 0}svg#freepik_stories-drone.animated #elhzg3wcxzovb {animation: 2.6s 1 forwards cubic-bezier(.36,-0.01,.5,1.38) slideRight;animation-delay: 1.3s;opacity: 0}svg#freepik_stories-drone.animated #el3f7vh5w5jzr {animation: 2.6s 1 forwards cubic-bezier(.36,-0.01,.5,1.38) slideRight;animation-delay: 1.4625000000000001s;opacity: 0}svg#freepik_stories-drone.animated #el4olwr9c7rnq {animation: 2.6s 1 forwards cubic-bezier(.36,-0.01,.5,1.38) slideRight;animation-delay: 1.625s;opacity: 0}svg#freepik_stories-drone.animated #elpzzd5e0lkn {animation: 2.6s 1 forwards cubic-bezier(.36,-0.01,.5,1.38) slideRight;animation-delay: 1.7875s;opacity: 0}svg#freepik_stories-drone.animated #el1vt77kxsdga {animation: 2.6s 1 forwards cubic-bezier(.36,-0.01,.5,1.38) slideRight;animation-delay: 1.9500000000000002s;opacity: 0}svg#freepik_stories-drone.animated #elcb417fziy9 {animation: 2.6s 1 forwards cubic-bezier(.36,-0.01,.5,1.38) slideRight;animation-delay: 2.1125000000000003s;opacity: 0}svg#freepik_stories-drone.animated #elm1x28ks0cwi {animation: 2.6s 1 forwards cubic-bezier(.36,-0.01,.5,1.38) slideRight;animation-delay: 2.275s;opacity: 0}svg#freepik_stories-drone.animated #elr7pwgldjs2m {animation: 2.6s 1 forwards cubic-bezier(.36,-0.01,.5,1.38) slideRight;animation-delay: 2.4375s;opacity: 0}svg#freepik_stories-drone.animated #freepik--Clouds--inject-4 {animation: 2.6s 1 forwards cubic-bezier(.36,-0.01,.5,1.38) slideRight,6s Infinite  linear wind;animation-delay: 0s,2.6s;}svg#freepik_stories-drone.animated #freepik--Device--inject-4 {animation: 1.8s 1 forwards cubic-bezier(.36,-0.01,.5,1.38) zoomIn,3s Infinite  linear floating;animation-delay: 0s,1.8s;}            @keyframes zoomIn {                0% {                    opacity: 0;                    transform: scale(0.5);                }                100% {                    opacity: 1;                    transform: scale(1);                }            }                    @keyframes floating {                0% {                    opacity: 1;                    transform: translateY(0px);                }                50% {                    transform: translateY(-10px);                }                100% {                    opacity: 1;                    transform: translateY(0px);                }            }                    @keyframes slideRight {                0% {                    opacity: 0;                    transform: translateX(30px);                }                100% {                    opacity: 1;                    transform: translateX(0);                }            }                    @keyframes wind {                0% {                    transform: rotate( 0deg );                }                25% {                    transform: rotate( 1deg );                }                75% {                    transform: rotate( -1deg );                }            }        </style><g id="freepik--background-simple--inject-4" style="transform-origin: 377.551px 258.861px 0px;" class="animable animator-active"><path d="M535.49,82c-117,52.12-224.34-75-341.73-51.21-58.63,11.9-109,55.91-141.41,108.8C17.68,196.23.25,270.12,23.06,335.67a173.19,173.19,0,0,0,27.44,50c66.4,84.56,207.52,130.9,304.14,88L356,473c107.13-49,185.4,11.5,278-16.89,104.47-32,129.37-189.47,91.89-285-10.42-26.56-28.45-50.11-49.56-67.54C636,70.25,582.71,61,535.49,82Z" style="fill: rgb(119, 255, 192); transform-origin: 377.551px 258.861px 0px;" id="elj0hyloxjjtp" class="animable"></path><g id="el806erdkaaox"><path d="M535.49,82c-117,52.12-224.34-75-341.73-51.21-58.63,11.9-109,55.91-141.41,108.8C17.68,196.23.25,270.12,23.06,335.67a173.19,173.19,0,0,0,27.44,50c66.4,84.56,207.52,130.9,304.14,88L356,473c107.13-49,185.4,11.5,278-16.89,104.47-32,129.37-189.47,91.89-285-10.42-26.56-28.45-50.11-49.56-67.54C636,70.25,582.71,61,535.49,82Z" style="fill: rgb(255, 255, 255); opacity: 0.7; transform-origin: 377.551px 258.861px 0px;" class="animable"></path></g></g><g id="freepik--Clouds--inject-4" style="transform-origin: 364.213px 239.688px 0px;" class="animable"><path d="M617.65,25.22A72.49,72.49,0,0,0,580.82,9.48c-32.46-3.89-58.42,36.35-64.91,39S505.52,38,484.75,39.34s-26,16.88-35.05,19.47-19.47-2.59-27.26-2.59-26,13-26,13h283s2.6-19.47-13-31.16-23.37,3.9-36.35,0a63.18,63.18,0,0,0-9-9.82" style="fill: none; stroke: rgb(38, 50, 56); stroke-linecap: round; stroke-linejoin: round; transform-origin: 538.021px 39.2177px 0px;" id="elhr01epy9fg4" class="animable"></path><path d="M543.27,52.82c1.45.37,2.81.75,4.05,1.11a19,19,0,0,0,14.47-1.63,25.21,25.21,0,0,1,11.73-3.43c9.28,0,15,3.09,15,3.09" style="fill: none; stroke: rgb(38, 50, 56); stroke-linecap: round; stroke-linejoin: round; transform-origin: 565.895px 51.7728px 0px;" id="elvx51lmos5m" class="animable"></path><path d="M455.92,66.41a19.61,19.61,0,0,1,8.77-6.71c6.19-2.58,13.9,3.26,18.56,3.1,15-.52,9.29-8.26,27.34-12.38,8.84-2,19.77-.58,28.64,1.41" style="fill: none; stroke: rgb(38, 50, 56); stroke-linecap: round; stroke-linejoin: round; transform-origin: 497.575px 57.932px 0px;" id="elc98122wlr1r" class="animable"></path><path d="M666.36,68.47S656,58.67,644.18,57.12s-18.57,7.74-22.7,6.71-16-8.26-25.78-1.55" style="fill: none; stroke: rgb(38, 50, 56); stroke-linecap: round; stroke-linejoin: round; transform-origin: 631.03px 62.7076px 0px;" id="ely5ievo24u7b" class="animable"></path><path d="M253.65,423.82a76.39,76.39,0,0,0-38.82-16.59c-34.21-4.1-61.57,38.31-68.41,41s-10.94-10.94-32.83-9.57-27.37,17.78-36.94,20.52-20.52-2.74-28.73-2.74-27.36,13.68-27.36,13.68H318.8s2.74-20.52-13.68-32.83-24.63,4.1-38.31,0A66.38,66.38,0,0,0,257.35,427" style="fill: none; stroke: rgb(38, 50, 56); stroke-linecap: round; stroke-linejoin: round; transform-origin: 169.766px 438.536px 0px;" id="el2n6d5o8qouo" class="animable"></path><path d="M175.26,452.9c1.52.39,3,.79,4.27,1.17a20,20,0,0,0,15.24-1.72,26.68,26.68,0,0,1,12.36-3.61c9.79,0,15.77,3.26,15.77,3.26" style="fill: none; stroke: rgb(38, 50, 56); stroke-linecap: round; stroke-linejoin: round; transform-origin: 199.08px 451.798px 0px;" id="elxmj84vvy4r9" class="animable"></path><path d="M83.2,467.22a20.68,20.68,0,0,1,9.24-7.07c6.53-2.72,14.65,3.43,19.57,3.26,15.76-.54,9.78-8.69,28.81-13,9.31-2.13,20.84-.61,30.18,1.49" style="fill: none; stroke: rgb(38, 50, 56); stroke-linecap: round; stroke-linejoin: round; transform-origin: 127.1px 458.301px 0px;" id="el3qk8tf1gpi8" class="animable"></path><path d="M305,469.39s-10.87-10.32-23.37-12-19.57,8.16-23.92,7.07-16.85-8.7-27.17-1.63" style="fill: none; stroke: rgb(38, 50, 56); stroke-linecap: round; stroke-linejoin: round; transform-origin: 267.77px 463.293px 0px;" id="elyypcdbqeo5f" class="animable"></path><path d="M176.18,87.49a32.36,32.36,0,0,0-16.49-7c-14.53-1.75-26.16,16.27-29.06,17.43s-4.66-4.65-14-4.07-11.62,7.56-15.69,8.72-8.72-1.16-12.21-1.16-11.62,5.81-11.62,5.81H203.87s1.16-8.71-5.81-14-10.47,1.75-16.28,0a28.27,28.27,0,0,0-4-4.39" style="fill: none; stroke: rgb(38, 50, 56); stroke-linecap: round; stroke-linejoin: round; transform-origin: 140.526px 93.7952px 0px;" id="elhzg3wcxzovb" class="animable"></path><path d="M142.88,99.85l1.81.5a8.57,8.57,0,0,0,6.48-.73,11.28,11.28,0,0,1,5.25-1.54,15,15,0,0,1,6.7,1.39" style="fill: none; stroke: rgb(38, 50, 56); stroke-linecap: round; stroke-linejoin: round; transform-origin: 153px 99.3772px 0px;" id="el3f7vh5w5jzr" class="animable"></path><path d="M103.76,105.93a8.86,8.86,0,0,1,3.93-3c2.77-1.15,6.22,1.46,8.31,1.39,6.7-.23,4.16-3.7,12.25-5.55,3.95-.9,8.85-.25,12.82.64" style="fill: none; stroke: rgb(38, 50, 56); stroke-linecap: round; stroke-linejoin: round; transform-origin: 122.415px 102.134px 0px;" id="el4olwr9c7rnq" class="animable"></path><path d="M198,106.86s-4.62-4.39-9.93-5.08-8.31,3.46-10.16,3-7.16-3.7-11.55-.69" style="fill: none; stroke: rgb(38, 50, 56); stroke-linecap: round; stroke-linejoin: round; transform-origin: 182.18px 104.281px 0px;" id="elpzzd5e0lkn" class="animable"></path><path d="M663.56,438.73a51.88,51.88,0,0,0-26.32-11.25c-23.2-2.78-41.75,26-46.39,27.84s-7.43-7.42-22.27-6.5S550,460.88,543.53,462.74s-13.92-1.86-19.49-1.86-18.55,9.28-18.55,9.28H707.75s1.85-13.91-9.28-22.26-16.7,2.78-26,0a44.42,44.42,0,0,0-6.41-7" style="fill: none; stroke: rgb(38, 50, 56); stroke-linecap: round; stroke-linejoin: round; transform-origin: 606.678px 448.726px 0px;" id="el1vt77kxsdga" class="animable"></path><path d="M610.41,458.45c1,.27,2,.54,2.89.8a13.61,13.61,0,0,0,10.34-1.16,18,18,0,0,1,8.38-2.46,24.08,24.08,0,0,1,10.69,2.21" style="fill: none; stroke: rgb(38, 50, 56); stroke-linecap: round; stroke-linejoin: round; transform-origin: 626.56px 457.702px 0px;" id="elcb417fziy9" class="animable"></path><path d="M548,468.17a14.1,14.1,0,0,1,6.27-4.8c4.42-1.84,9.93,2.33,13.27,2.22,10.69-.37,6.64-5.9,19.54-8.85,6.31-1.44,14.13-.41,20.46,1" style="fill: none; stroke: rgb(38, 50, 56); stroke-linecap: round; stroke-linejoin: round; transform-origin: 577.77px 462.108px 0px;" id="elm1x28ks0cwi" class="animable"></path><path d="M698.37,469.64s-7.37-7-15.85-8.11-13.27,5.53-16.22,4.79-11.43-5.89-18.43-1.1" style="fill: none; stroke: rgb(38, 50, 56); stroke-linecap: round; stroke-linejoin: round; transform-origin: 673.12px 465.522px 0px;" id="elr7pwgldjs2m" class="animable"></path></g><g id="freepik--Device--inject-4" style="transform-origin: 376.15px 240.932px 0px;" class="animable"><rect x="336.14" y="329.91" width="9.61" height="45.46" style="fill: rgb(38, 50, 56); stroke: rgb(38, 50, 56); stroke-linecap: round; stroke-linejoin: round; transform-origin: 340.945px 352.64px 0px;" id="eluzsmrsycjt" class="animable"></rect><rect x="336.14" y="350.39" width="9.61" height="24.97" style="fill: rgb(119, 255, 192); stroke: rgb(38, 50, 56); stroke-linecap: round; stroke-linejoin: round; transform-origin: 340.945px 362.875px 0px;" id="elheh46kis9vd" class="animable"></rect><rect x="404.88" y="329.91" width="9.61" height="45.46" style="fill: rgb(38, 50, 56); stroke: rgb(38, 50, 56); stroke-linecap: round; stroke-linejoin: round; transform-origin: 409.685px 352.64px 0px;" id="elrqof39dj6yl" class="animable"></rect><rect x="404.88" y="350.39" width="9.61" height="24.97" style="fill: rgb(119, 255, 192); stroke: rgb(38, 50, 56); stroke-linecap: round; stroke-linejoin: round; transform-origin: 409.685px 362.875px 0px;" id="el2sx9wh644wq" class="animable"></rect><path d="M405.25,329.91v48.77a11.49,11.49,0,0,1-6.47,10.45,22.15,22.15,0,0,1-9.45,2.13H361.68a22.23,22.23,0,0,1-9.46-2.13,11.51,11.51,0,0,1-6.47-10.45V329.91l29.75-.74Z" style="fill: rgb(255, 255, 255); stroke: rgb(38, 50, 56); stroke-linecap: round; stroke-linejoin: round; transform-origin: 375.5px 360.215px 0px;" id="elqdn9mgdqm1g" class="animable"></path><path d="M405.25,329.91v12.18a11.52,11.52,0,0,1-6.47,10.46,22.14,22.14,0,0,1-9.45,2.12H361.68a22.22,22.22,0,0,1-9.46-2.12,11.53,11.53,0,0,1-6.47-10.46V329.91l29.75-.74Z" style="fill: rgb(38, 50, 56); stroke: rgb(38, 50, 56); stroke-linecap: round; stroke-linejoin: round; transform-origin: 375.5px 341.92px 0px;" id="elajof132hilt" class="animable"></path><path d="M389.13,359.48H361.87a6,6,0,0,0-6,5.95v15.81a6,6,0,0,0,6,5.95h27.26a6,6,0,0,0,6-5.95V365.43A6,6,0,0,0,389.13,359.48Zm-.76,17a6,6,0,0,1-5.95,5.95H368.58a6,6,0,0,1-5.95-5.95v-6.31a6,6,0,0,1,5.95-5.95h13.84a6,6,0,0,1,5.95,5.95Z" style="fill: rgb(38, 50, 56); stroke: rgb(38, 50, 56); stroke-linecap: round; stroke-linejoin: round; transform-origin: 375.5px 373.335px 0px;" id="el1l02m7z355a" class="animable"></path><circle cx="375.5" cy="371.28" r="7.05" style="fill: rgb(38, 50, 56); stroke: rgb(38, 50, 56); stroke-linecap: round; stroke-linejoin: round; transform-origin: 375.5px 371.28px 0px;" id="elgle824zvmbs" class="animable"></circle><path d="M639.59,338.71S618.43,396,617,397.45s-3.64,1.1-5.47.73-7.66-3.64-8.76-5.47.37-3.65,1.1-6.93,14.23-47.43,14.23-47.43L637,334Z" style="fill: rgb(38, 50, 56); stroke: rgb(38, 50, 56); stroke-linecap: round; stroke-linejoin: round; transform-origin: 620.983px 366.253px 0px;" id="elxc6u5zd06pr" class="animable"></path><path d="M643.24,314.63l-1.78,21.12a9.64,9.64,0,0,1-5.17,7.72c-3.8,2-9.5,4.2-15.67,4-10.94-.37-21.52-11.68-29.55-17.15s-28.82-11.67-39.77-13.86-81-16.06-86.11-20.07-10.58-9.49-12.4-10.58S438.92,284,438.92,284l-1.82-25.54,198.48,57.29Z" style="fill: rgb(38, 50, 56); stroke: rgb(38, 50, 56); stroke-linecap: round; stroke-linejoin: round; transform-origin: 540.17px 302.971px 0px;" id="elbajeqeuf5zg" class="animable"></path><path d="M438.92,247.5s13.14,7.66,22.63,10.58,20.06,2.19,20.06,2.19S638.5,307,641.05,307.7s4.38,11.31-1.46,17.51-20.79,6.21-26.63,2.56-16.78-13.5-17.88-14.23-118.94-38-123.68-39.77-10.58-3.65-11.68-3.65-13.13-1.46-16.05-2.92S438.92,247.5,438.92,247.5Z" style="fill: rgb(119, 255, 192); stroke: rgb(38, 50, 56); stroke-linecap: round; stroke-linejoin: round; transform-origin: 541.194px 288.874px 0px;" id="elf7s05cyt8iv" class="animable"></path><path d="M454.26,255.3c-7.78-3.4-15.34-7.8-15.34-7.8s1.83,18.24,4.75,19.7,15,2.92,16.05,2.92a5.25,5.25,0,0,1,.86.13Z" style="fill: rgb(38, 50, 56); stroke: rgb(38, 50, 56); stroke-linecap: round; stroke-linejoin: round; transform-origin: 449.75px 258.875px 0px;" id="ell13tnxv28z" class="animable"></path><path d="M605.3,296.12v17c0,6.26,8.82,11.34,19.7,11.34s19.71-5.08,19.71-11.34v-17Z" style="fill: rgb(119, 255, 192); stroke: rgb(38, 50, 56); stroke-linecap: round; stroke-linejoin: round; transform-origin: 625.005px 310.29px 0px;" id="eldm73l06v3v8" class="animable"></path><ellipse cx="625" cy="296.12" rx="19.71" ry="11.35" style="fill: rgb(119, 255, 192); stroke: rgb(38, 50, 56); stroke-linecap: round; stroke-linejoin: round; transform-origin: 625px 296.12px 0px;" id="elmj13kwrlxs" class="animable"></ellipse><path d="M620.91,287.48l14-10.54,4.89,4.52.76,14.66c0,4.95-7,9-15.57,9s-15.56-4-15.56-9C609.44,292,614.31,288.52,620.91,287.48Z" style="fill: rgb(38, 50, 56); stroke: rgb(38, 50, 56); stroke-linecap: round; stroke-linejoin: round; transform-origin: 624.995px 291.03px 0px;" id="elia1ciq9gh5" class="animable"></path><path d="M695.05,212.11s9.85,10.58,8.39,14.59-40.49,42-44.51,43.78-12,6.57-12,6.57l-22.62,19.34s-.73,25.54-6.2,31-62.76,35-63.49,37.58-1.46,4.38-3.28,4.75-8-6.21-10.22-11.32-2.19-6.56,0-9.85S590.7,298.21,593.26,296s9.12-1.09,13.13-3.64S630.11,274.5,630.11,273s-2.19-4.38.73-7.3,55.09-43.42,56.55-47.06.37-6.57,1.82-7.67S695.05,212.11,695.05,212.11Z" style="fill: rgb(38, 50, 56); stroke: rgb(38, 50, 56); stroke-linecap: round; stroke-linejoin: round; transform-origin: 621.527px 290.201px 0px;" id="eliikk3ym1uwa" class="animable"></path><path d="M634.64,274.41l2.56.78a3,3,0,0,1,1.14,5l-11.21,10.32a8.08,8.08,0,0,1-7.46,1.87l-3.73-1a2.66,2.66,0,0,1-1.12-4.56l11.78-10.65A8.37,8.37,0,0,1,634.64,274.41Z" style="fill: rgb(255, 255, 255); stroke: rgb(38, 50, 56); stroke-linecap: round; stroke-linejoin: round; transform-origin: 626.593px 283.336px 0px;" id="elqsnfrvrhtc" class="animable"></path><path d="M541.08,358.41c-2.19-5.1-2.19-6.56,0-9.85.18-.26.65-.81,1.36-1.59L553,368.64a2.91,2.91,0,0,1-1.72,1.09C549.48,370.09,543.27,363.52,541.08,358.41Z" style="fill: rgb(255, 255, 255); stroke: rgb(38, 50, 56); stroke-linecap: round; stroke-linejoin: round; transform-origin: 546.219px 358.357px 0px;" id="elenkoah3o7gg" class="animable"></path><path d="M703.44,226.7c1.46-4-8.39-14.59-8.39-14.59s-4.38-2.19-5.84-1.1-.36,4-1.82,7.67L701,230A16.23,16.23,0,0,0,703.44,226.7Z" style="fill: rgb(255, 255, 255); stroke: rgb(38, 50, 56); stroke-linecap: round; stroke-linejoin: round; transform-origin: 695.489px 220.353px 0px;" id="el8z3k2takg1u" class="animable"></path><path d="M112.35,338.71S133.51,396,135,397.45s3.65,1.1,5.47.73,7.66-3.64,8.76-5.47-.37-3.65-1.1-6.93-14.22-47.43-14.22-47.43l-19-4.38Z" style="fill: rgb(38, 50, 56); stroke: rgb(38, 50, 56); stroke-linecap: round; stroke-linejoin: round; transform-origin: 130.988px 366.238px 0px;" id="elq3xfwju4qk" class="animable"></path><path d="M108.7,314.63l1.78,21.12a9.64,9.64,0,0,0,5.17,7.72c3.8,2,9.51,4.2,15.67,4,11-.37,21.53-11.68,29.55-17.15s28.83-11.67,39.77-13.86,81-16.06,86.11-20.07,10.58-9.49,12.4-10.58S313,284,313,284l1.82-25.54L116.36,315.73Z" style="fill: rgb(38, 50, 56); stroke: rgb(38, 50, 56); stroke-linecap: round; stroke-linejoin: round; transform-origin: 211.76px 302.971px 0px;" id="eliyciikou4qg" class="animable"></path><path d="M313,247.5s-13.14,7.66-22.62,10.58-20.07,2.19-20.07,2.19S113.44,307,110.89,307.7s-4.38,11.31,1.46,17.51,20.8,6.21,26.63,2.56,16.79-13.5,17.88-14.23,118.94-38,123.69-39.77,10.58-3.65,11.67-3.65,13.14-1.46,16.06-2.92S313,247.5,313,247.5Z" style="fill: rgb(119, 255, 192); stroke: rgb(38, 50, 56); stroke-linecap: round; stroke-linejoin: round; transform-origin: 210.736px 288.874px 0px;" id="elxcxd1pq34jc" class="animable"></path><path d="M146.64,296.12v17c0,6.26-8.82,11.34-19.7,11.34s-19.71-5.08-19.71-11.34v-17Z" style="fill: rgb(119, 255, 192); stroke: rgb(38, 50, 56); stroke-linecap: round; stroke-linejoin: round; transform-origin: 126.935px 310.29px 0px;" id="eluttw907wc7" class="animable"></path><ellipse cx="126.94" cy="296.12" rx="19.71" ry="11.35" style="fill: rgb(119, 255, 192); stroke: rgb(38, 50, 56); stroke-linecap: round; stroke-linejoin: round; transform-origin: 126.94px 296.12px 0px;" id="elkyss2k4dkgj" class="animable"></ellipse><path d="M131,287.48l-14-10.54-4.89,4.52-.76,14.66c0,4.95,7,9,15.56,9s15.56-4,15.56-9C142.5,292,137.64,288.52,131,287.48Z" style="fill: rgb(38, 50, 56); stroke: rgb(38, 50, 56); stroke-linecap: round; stroke-linejoin: round; transform-origin: 126.91px 291.03px 0px;" id="ellx9u7mcto1" class="animable"></path><path d="M56.89,212.11S47,222.69,48.5,226.7,89,268.66,93,270.48s12,6.57,12,6.57l22.62,19.34s.73,25.54,6.21,31,62.75,35,63.48,37.58,1.46,4.38,3.28,4.75,8-6.21,10.22-11.32,2.19-6.56,0-9.85S161.24,298.21,158.69,296s-9.13-1.09-13.14-3.64S121.83,274.5,121.83,273s2.19-4.38-.72-7.3S66,222.32,64.55,218.68s-.36-6.57-1.82-7.67S56.89,212.11,56.89,212.11Z" style="fill: rgb(38, 50, 56); stroke: rgb(38, 50, 56); stroke-linecap: round; stroke-linejoin: round; transform-origin: 130.404px 290.218px 0px;" id="elp1v17ews8j" class="animable"></path><path d="M62.73,211c-1.46-1.09-5.84,1.1-5.84,1.1S47,222.69,48.5,226.7a7.92,7.92,0,0,0,1.15,1.72l13.89-15.6A2.47,2.47,0,0,0,62.73,211Z" style="fill: rgb(255, 255, 255); stroke: rgb(38, 50, 56); stroke-linecap: round; stroke-linejoin: round; transform-origin: 55.9426px 219.558px 0px;" id="elmyp0az7nlp" class="animable"></path><path d="M210.86,358.41c2.19-5.1,2.19-6.56,0-9.85-.18-.26-.65-.81-1.36-1.59l-10.58,21.67a2.91,2.91,0,0,0,1.72,1.09C202.47,370.09,208.67,363.52,210.86,358.41Z" style="fill: rgb(255, 255, 255); stroke: rgb(38, 50, 56); stroke-linecap: round; stroke-linejoin: round; transform-origin: 205.711px 358.357px 0px;" id="el33kal8r9kj" class="animable"></path><path d="M117.31,274.41l-2.57.78a3,3,0,0,0-1.14,5l11.22,10.32a8.06,8.06,0,0,0,7.46,1.87l3.72-1a2.67,2.67,0,0,0,1.13-4.56l-11.78-10.65A8.37,8.37,0,0,0,117.31,274.41Z" style="fill: rgb(255, 255, 255); stroke: rgb(38, 50, 56); stroke-linecap: round; stroke-linejoin: round; transform-origin: 125.346px 283.337px 0px;" id="ely0w0pkc32p" class="animable"></path><path d="M320.88,204.37s-99.81-33.77-102.5-33.17-5.68,1.5-7.77.6-25.7-7.47-27.2-7.47-6.57,2.39-6.87,5.68.6,17.33,1.49,19.12S188.79,196,192.08,196s16.14-5.68,19.13-4.49S326.56,239,326.56,239l6.57-10.46Z" style="fill: rgb(119, 255, 192); stroke: rgb(38, 50, 56); stroke-linecap: round; stroke-linejoin: round; transform-origin: 254.806px 201.665px 0px;" id="elfkt5gcpuv86" class="animable"></path><path d="M192.08,196c-3.29,0-13.15-5.08-14.05-6.88-.57-1.14-1.14-7.25-1.4-12.38,8.41,9.66,23.34,4.06,25.61,4.91s3.88-.9,6.28-2.39a36.32,36.32,0,0,1,5.67-2.69l112,38.31,6.93,13.69L326.56,239s-112.37-46.32-115.35-47.52S195.37,196,192.08,196Z" style="fill: rgb(38, 50, 56); stroke: rgb(38, 50, 56); stroke-linecap: round; stroke-linejoin: round; transform-origin: 254.875px 207.785px 0px;" id="el99uxod31u29" class="animable"></path><path d="M210.06,158.51v12.55c0,4.62-7.83,8.37-17.48,8.37s-17.48-3.75-17.48-8.37V158.51Z" style="fill: rgb(119, 255, 192); stroke: rgb(38, 50, 56); stroke-linecap: round; stroke-linejoin: round; transform-origin: 192.58px 168.97px 0px;" id="elb0ipgrgggwu" class="animable"></path><ellipse cx="192.58" cy="158.51" rx="17.48" ry="8.37" style="fill: rgb(119, 255, 192); stroke: rgb(38, 50, 56); stroke-linecap: round; stroke-linejoin: round; transform-origin: 192.58px 158.51px 0px;" id="elcqdldyryemb" class="animable"></ellipse><path d="M178.77,158.51c0,3.65,6.18,6.61,13.81,6.61s13.81-3,13.81-6.61-6.19-6.61-13.81-6.61S178.77,154.86,178.77,158.51Z" style="fill: rgb(38, 50, 56); stroke: rgb(38, 50, 56); stroke-linecap: round; stroke-linejoin: round; transform-origin: 192.58px 158.51px 0px;" id="el7vwuemgmz45" class="animable"></path><path d="M203.92,146.26s1.19,3.09-1.66,6.65-8.54,5.93-11.15,6.41a43.73,43.73,0,0,1-7.36.24s-10.45,19.69-14,21.59-83.06,33-84.25,34.18-4-.71-4.75-2.85-1.66-8.54.71-10.68,71.92-48.18,74.77-48.42,18-.47,19-.94S278,90.49,280.34,88.59s2.62-5,4.28-5.22,4.51,3.56,3.79,7.83S283,98.32,283,98.32Z" style="fill: rgb(38, 50, 56); stroke: rgb(38, 50, 56); stroke-linecap: round; stroke-linejoin: round; transform-origin: 184.229px 149.527px 0px;" id="eljras5d4zbz" class="animable"></path><path d="M283.51,84.12a1.69,1.69,0,0,1,1.11-.75c1.66-.24,4.51,3.56,3.79,7.83-.56,3.38-3.63,5.86-4.9,6.75Z" style="fill: rgb(255, 255, 255); stroke: rgb(38, 50, 56); stroke-linecap: round; stroke-linejoin: round; transform-origin: 286.017px 90.6546px 0px;" id="elcoygi4qol7c" class="animable"></path><path d="M80.74,212.48c-.71-2.13-1.66-8.54.71-10.68.45-.4,3.21-2.31,7.44-5.17L86.1,215a3.47,3.47,0,0,0-.61.33C84.3,216.52,81.45,214.62,80.74,212.48Z" style="fill: rgb(255, 255, 255); stroke: rgb(38, 50, 56); stroke-linecap: round; stroke-linejoin: round; transform-origin: 84.4141px 206.164px 0px;" id="eldpk3tktuadh" class="animable"></path><path d="M201.44,136.18h0c2.84,1.88,2.58,5.67-.5,7.46L184.8,153a4.47,4.47,0,0,1-4.55,0L178,151.5c-2.14-1.36-2-4.17.29-5.51l16.85-9.9A6,6,0,0,1,201.44,136.18Z" style="fill: rgb(255, 255, 255); stroke: rgb(38, 50, 56); stroke-linecap: round; stroke-linejoin: round; transform-origin: 189.95px 144.432px 0px;" id="el8qv7p6hx9a3" class="animable"></path><path d="M432.8,204.37s99.81-33.77,102.5-33.17,5.68,1.5,7.77.6,25.7-7.47,27.19-7.47,6.58,2.39,6.88,5.68-.6,17.33-1.5,19.12-10.75,6.88-14,6.88-16.14-5.68-19.13-4.49S427.12,239,427.12,239l-6.57-10.46Z" style="fill: rgb(119, 255, 192); stroke: rgb(38, 50, 56); stroke-linecap: round; stroke-linejoin: round; transform-origin: 498.874px 201.665px 0px;" id="elhhzpgnsyllm" class="animable"></path><path d="M432.8,204.37l-12.25,24.21L427.12,239l38.3-15.79-19.48-23.31Z" style="fill: rgb(38, 50, 56); stroke: rgb(38, 50, 56); stroke-linecap: round; stroke-linejoin: round; transform-origin: 442.985px 219.45px 0px;" id="elzw2eqst13e" class="animable"></path><path d="M561.6,196c3.29,0,13.15-5.08,14-6.88.57-1.14,1.14-7.25,1.41-12.38-8.41,9.66-23.34,4.06-25.61,4.91s-3.89-.9-6.28-2.39a36.22,36.22,0,0,0-5.68-2.69l-112,38.31-6.92,13.69L427.12,239s112.36-46.32,115.35-47.52S558.31,196,561.6,196Z" style="fill: rgb(38, 50, 56); stroke: rgb(38, 50, 56); stroke-linecap: round; stroke-linejoin: round; transform-origin: 498.765px 207.785px 0px;" id="elknm60p18pga" class="animable"></path><path d="M543.62,158.51v12.55c0,4.62,7.82,8.37,17.48,8.37s17.48-3.75,17.48-8.37V158.51Z" style="fill: rgb(119, 255, 192); stroke: rgb(38, 50, 56); stroke-linecap: round; stroke-linejoin: round; transform-origin: 561.1px 168.97px 0px;" id="elz660pe8s8bi" class="animable"></path><ellipse cx="561.1" cy="158.51" rx="17.48" ry="8.37" style="fill: rgb(119, 255, 192); stroke: rgb(38, 50, 56); stroke-linecap: round; stroke-linejoin: round; transform-origin: 561.1px 158.51px 0px;" id="el6ofrspt59hn" class="animable"></ellipse><path d="M574.91,158.51c0,3.65-6.19,6.61-13.81,6.61s-13.81-3-13.81-6.61,6.18-6.61,13.81-6.61S574.91,154.86,574.91,158.51Z" style="fill: rgb(38, 50, 56); stroke: rgb(38, 50, 56); stroke-linecap: round; stroke-linejoin: round; transform-origin: 561.1px 158.51px 0px;" id="elrqmurfqx62k" class="animable"></path><path d="M549.76,146.26s-1.19,3.09,1.66,6.65,8.54,5.93,11.15,6.41a43.72,43.72,0,0,0,7.36.24s10.44,19.69,14,21.59,83.07,33,84.26,34.18,4-.71,4.75-2.85,1.66-8.54-.72-10.68-71.91-48.18-74.76-48.42-18-.47-19-.94S475.71,90.49,473.33,88.59s-2.61-5-4.27-5.22-4.51,3.56-3.8,7.83,5.46,7.12,5.46,7.12Z" style="fill: rgb(38, 50, 56); stroke: rgb(38, 50, 56); stroke-linecap: round; stroke-linejoin: round; transform-origin: 569.452px 149.527px 0px;" id="elf0cr97gag3o" class="animable"></path><path d="M470.17,84.12a1.69,1.69,0,0,0-1.11-.75c-1.66-.24-4.51,3.56-3.8,7.83.57,3.38,3.64,5.86,4.91,6.75Z" style="fill: rgb(255, 255, 255); stroke: rgb(38, 50, 56); stroke-linecap: round; stroke-linejoin: round; transform-origin: 467.659px 90.6546px 0px;" id="elqzfxa28twt" class="animable"></path><path d="M672.94,212.48c.71-2.13,1.66-8.54-.72-10.68-.44-.4-3.2-2.31-7.43-5.17L667.57,215a3.33,3.33,0,0,1,.62.33C669.38,216.52,672.22,214.62,672.94,212.48Z" style="fill: rgb(255, 255, 255); stroke: rgb(38, 50, 56); stroke-linecap: round; stroke-linejoin: round; transform-origin: 669.265px 206.164px 0px;" id="elbi1few3ygxt" class="animable"></path><path d="M552.23,136.18h0c-2.83,1.88-2.58,5.67.51,7.46L568.88,153a4.47,4.47,0,0,0,4.55,0l2.24-1.44c2.13-1.36,2-4.17-.29-5.51l-16.85-9.9A6.07,6.07,0,0,0,552.23,136.18Z" style="fill: rgb(255, 255, 255); stroke: rgb(38, 50, 56); stroke-linecap: round; stroke-linejoin: round; transform-origin: 563.721px 144.453px 0px;" id="el5xrdp1df1q9" class="animable"></path><path d="M384.32,158.65c0,3.47-4,6.28-8.9,6.28s-8.9-2.81-8.9-6.28,4-6.27,8.9-6.27S384.32,155.18,384.32,158.65Z" style="fill: rgb(119, 255, 192); stroke: rgb(38, 50, 56); stroke-linecap: round; stroke-linejoin: round; transform-origin: 375.42px 158.655px 0px;" id="elu2ez6n8ol2f" class="animable"></path><path d="M443.26,249.8c-.3-3.29-19.13-20.92-19.13-20.92s10.76-9.86,12.26-13.15-2.4-19.13-3.89-21.22-17.33-11.95-17.33-11.95-1.5-10.46-1.8-12-9.16-13.74-9.16-13.74h-56s-9.86,12.25-10.16,13.74-1.8,12-1.8,12-15.83,9.86-17.33,11.95-5.38,17.93-3.88,21.22,12.25,13.15,12.25,13.15-18.83,17.63-19.13,20.92-1.79,70.22-.59,72.91,14.34,12,16.43,12.55,16.44-1.19,17.33-1.49,34.37,0,34.37,0,33.47-.3,34.37,0,15.24,2.09,17.33,1.49,15.24-9.86,16.44-12.55S443.56,253.08,443.26,249.8Z" style="fill: rgb(119, 255, 192); stroke: rgb(38, 50, 56); stroke-linecap: round; stroke-linejoin: round; transform-origin: 375.706px 246.101px 0px;" id="elk87pi1od24d" class="animable"></path><path d="M424.13,228.88s10.76-9.86,12.26-13.15-2.4-19.13-3.89-21.22-17.33-11.95-17.33-11.95-1.5-10.46-1.8-12l6.88,52Z" style="fill: rgb(38, 50, 56); stroke: rgb(38, 50, 56); stroke-linecap: round; stroke-linejoin: round; transform-origin: 425.049px 199.72px 0px;" id="elx8l9dinn2s" class="animable"></path><path d="M441.16,246.37v55.7s1.25,1.85-3.86,4.82l-5.1,3,6.91,17.51c2.4-1.93,4.32-3.7,4.75-4.66,1.19-2.69-.3-69.63-.6-72.91C443.2,249.14,442.4,247.91,441.16,246.37Z" style="fill: rgb(38, 50, 56); stroke: rgb(38, 50, 56); stroke-linecap: round; stroke-linejoin: round; transform-origin: 438.257px 286.885px 0px;" id="el3vrm4yqfbrl" class="animable"></path><polyline points="336.27 185.84 333.58 222.3 336.27 222.3 335.98 233.06 417.26 233.06 417.26 224.4 420.25 222.6 415.76 185.55" style="fill: none; stroke: rgb(38, 50, 56); stroke-linecap: round; stroke-linejoin: round; transform-origin: 376.915px 209.305px 0px;" id="elqziak3tj1y" class="animable"></polyline><polygon points="412.84 233 417.26 233.06 417.26 224.4 420.25 222.6 413.38 170.6 404.21 156.86 412.84 233" style="fill: rgb(38, 50, 56); stroke: rgb(38, 50, 56); stroke-linecap: round; stroke-linejoin: round; transform-origin: 412.23px 194.96px 0px;" id="ely5y4qorglza" class="animable"></polygon><line x1="347.33" y1="160.14" x2="340.16" y2="230.97" style="fill: none; stroke: rgb(38, 50, 56); stroke-linecap: round; stroke-linejoin: round; transform-origin: 343.745px 195.555px 0px;" id="eljbcgwb7vu9" class="animable"></line><path d="M309.08,284.76s5.38-9.26,15.24-6.57,11.66,9.56,13.75,14.34c1,2.26,3.58,9.56,9.26,13.45,1.88,1.28,53.79,0,53.79,0s3.29,0,5.68-4.19,10.23-20.05,16.74-23.31,13.44.6,16.43,3.89" style="fill: rgb(119, 255, 192); stroke: rgb(38, 50, 56); stroke-linecap: round; stroke-linejoin: round; transform-origin: 374.525px 291.897px 0px;" id="elbkwt2dmltcu" class="animable"></path><ellipse cx="321.18" cy="290.44" rx="10.31" ry="8.55" style="fill: rgb(119, 255, 192); stroke: rgb(38, 50, 56); stroke-linecap: round; stroke-linejoin: round; transform-origin: 321.18px 290.44px 0px;" id="elh8gpy8siot6" class="animable"></ellipse><path d="M321.18,286.07c-4.82,0-8.86,2.75-10,6.46,1.12,3.71,5.16,6.46,10,6.46s8.86-2.75,10-6.46C330,288.82,326,286.07,321.18,286.07Z" style="fill: rgb(38, 50, 56); stroke: rgb(38, 50, 56); stroke-linecap: round; stroke-linejoin: round; transform-origin: 321.18px 292.53px 0px;" id="eleb8k7yihg1g" class="animable"></path><ellipse cx="429.36" cy="290.44" rx="10.31" ry="8.55" style="fill: rgb(119, 255, 192); stroke: rgb(38, 50, 56); stroke-linecap: round; stroke-linejoin: round; transform-origin: 429.36px 290.44px 0px;" id="elx0khc8mpwc" class="animable"></ellipse><path d="M429.36,286.07c-4.82,0-8.86,2.75-10,6.46,1.12,3.71,5.16,6.46,10,6.46s8.86-2.75,10-6.46C438.22,288.82,434.18,286.07,429.36,286.07Z" style="fill: rgb(38, 50, 56); stroke: rgb(38, 50, 56); stroke-linecap: round; stroke-linejoin: round; transform-origin: 429.36px 292.53px 0px;" id="el7cxrnc5lluy" class="animable"></path><path d="M443.86,322.71a16,16,0,0,0,.31-3.38c-3.33-4-8.94-10.07-12-9.47-4.48.9-17,9.86-20.32,10.46s-34.66,0-34.66,0h-3.29s-28.09.6-31.38,0-15.84-9.56-20.32-10.46-14.64,12.85-14.64,12.85c1.19,2.69,14.34,12,16.43,12.55s16.44-1.19,17.33-1.49,34.37,0,34.37,0,33.47-.3,34.37,0,15.24,2.09,17.33,1.49S442.66,325.4,443.86,322.71Z" style="fill: rgb(38, 50, 56); stroke: rgb(38, 50, 56); stroke-linecap: round; stroke-linejoin: round; transform-origin: 375.866px 322.6px 0px;" id="eley86j9rowr" class="animable"></path><path d="M437,321.37c0,2.89-2.94,5.23-6.57,5.23s-6.58-2.34-6.58-5.23,2.95-5.23,6.58-5.23S437,318.48,437,321.37Z" style="fill: rgb(119, 255, 192); stroke: rgb(38, 50, 56); stroke-linecap: round; stroke-linejoin: round; transform-origin: 430.425px 321.37px 0px;" id="el2hfrn8ptib6" class="animable"></path><path d="M328.5,321.37c0,2.89-2.94,5.23-6.57,5.23s-6.57-2.34-6.57-5.23,2.94-5.23,6.57-5.23S328.5,318.48,328.5,321.37Z" style="fill: rgb(119, 255, 192); stroke: rgb(38, 50, 56); stroke-linecap: round; stroke-linejoin: round; transform-origin: 321.93px 321.37px 0px;" id="elu14o4kvv4pj" class="animable"></path><ellipse cx="375.72" cy="208.26" rx="11.65" ry="6.28" style="fill: rgb(119, 255, 192); stroke: rgb(38, 50, 56); stroke-linecap: round; stroke-linejoin: round; transform-origin: 375.72px 208.26px 0px;" id="elbk5rxjo9pv" class="animable"></ellipse><path d="M333.59,286.29s.59-26.93.29-32.91,3.29-13.74,3.29-13.74" style="fill: none; stroke: rgb(38, 50, 56); stroke-linecap: round; stroke-linejoin: round; transform-origin: 335.38px 262.965px 0px;" id="elkgyh25xgvq" class="animable"></path><line x1="344.94" y1="304.18" x2="344.94" y2="250.69" style="fill: none; stroke: rgb(38, 50, 56); stroke-linecap: round; stroke-linejoin: round; transform-origin: 344.94px 277.435px 0px;" id="el5m9sx0ouh6q" class="animable"></line><line x1="403.81" y1="304.78" x2="403.81" y2="249.5" style="fill: none; stroke: rgb(38, 50, 56); stroke-linecap: round; stroke-linejoin: round; transform-origin: 403.81px 277.14px 0px;" id="ele6tkg38hs3t" class="animable"></line><path d="M48.71,234.21S88.49,273,91,274.49s10.94,6,10.94,6" style="fill: none; stroke: rgb(38, 50, 56); stroke-linecap: round; stroke-linejoin: round; transform-origin: 75.325px 257.35px 0px;" id="elhlskx2o73mk" class="animable"></path><line x1="46.22" y1="238.19" x2="87.49" y2="276.97" style="fill: none; stroke: rgb(38, 50, 56); stroke-linecap: round; stroke-linejoin: round; transform-origin: 66.855px 257.58px 0px;" id="elavr306bt0ti" class="animable"></line><path d="M204.34,335.64s14.42,13.43,13.42,18.4a19.27,19.27,0,0,1-3.48,8" style="fill: none; stroke: rgb(38, 50, 56); stroke-linecap: round; stroke-linejoin: round; transform-origin: 211.075px 348.84px 0px;" id="elqgsl7j2xfe" class="animable"></path><path d="M209.81,333.16s14.42,13.42,13.42,18.39a19.18,19.18,0,0,1-3.48,8" style="fill: none; stroke: rgb(38, 50, 56); stroke-linecap: round; stroke-linejoin: round; transform-origin: 216.545px 346.355px 0px;" id="el0vy8duoelvaa" class="animable"></path><line x1="156.11" y1="346.08" x2="190.91" y2="365.48" style="fill: none; stroke: rgb(38, 50, 56); stroke-linecap: round; stroke-linejoin: round; transform-origin: 173.51px 355.78px 0px;" id="elqn0sxddh4ef" class="animable"></line><line x1="168.04" y1="357.52" x2="182.96" y2="365.48" style="fill: none; stroke: rgb(38, 50, 56); stroke-linecap: round; stroke-linejoin: round; transform-origin: 175.5px 361.5px 0px;" id="elb5fuc4oxpxe" class="animable"></line><line x1="74.57" y1="219.79" x2="117.33" y2="259.57" style="fill: none; stroke: rgb(38, 50, 56); stroke-linecap: round; stroke-linejoin: round; transform-origin: 95.95px 239.68px 0px;" id="elygzwimqflv" class="animable"></line><line x1="87.49" y1="226.26" x2="115.83" y2="253.6" style="fill: none; stroke: rgb(38, 50, 56); stroke-linecap: round; stroke-linejoin: round; transform-origin: 101.66px 239.93px 0px;" id="elynpe1ab3x4" class="animable"></line><path d="M703.59,234.21S663.82,273,661.33,274.49s-10.94,6-10.94,6" style="fill: none; stroke: rgb(38, 50, 56); stroke-linecap: round; stroke-linejoin: round; transform-origin: 676.99px 257.35px 0px;" id="elfoamzul330w" class="animable"></path><line x1="706.08" y1="238.19" x2="664.81" y2="276.97" style="fill: none; stroke: rgb(38, 50, 56); stroke-linecap: round; stroke-linejoin: round; transform-origin: 685.445px 257.58px 0px;" id="elc741vek1klq" class="animable"></line><path d="M548,335.64s-14.41,13.43-13.42,18.4a19.27,19.27,0,0,0,3.48,8" style="fill: none; stroke: rgb(38, 50, 56); stroke-linecap: round; stroke-linejoin: round; transform-origin: 541.266px 348.84px 0px;" id="el4q8vq4r2jne" class="animable"></path><path d="M542.5,333.16s-14.42,13.42-13.43,18.39a19.33,19.33,0,0,0,3.48,8" style="fill: none; stroke: rgb(38, 50, 56); stroke-linecap: round; stroke-linejoin: round; transform-origin: 535.761px 346.355px 0px;" id="elqtd09yukne" class="animable"></path><line x1="596.19" y1="346.08" x2="561.39" y2="365.48" style="fill: none; stroke: rgb(38, 50, 56); stroke-linecap: round; stroke-linejoin: round; transform-origin: 578.79px 355.78px 0px;" id="elrbr5fhlmssd" class="animable"></line><line x1="584.26" y1="357.52" x2="569.34" y2="365.48" style="fill: none; stroke: rgb(38, 50, 56); stroke-linecap: round; stroke-linejoin: round; transform-origin: 576.8px 361.5px 0px;" id="el1nn2opd0ami" class="animable"></line><line x1="677.74" y1="219.79" x2="634.98" y2="259.57" style="fill: none; stroke: rgb(38, 50, 56); stroke-linecap: round; stroke-linejoin: round; transform-origin: 656.36px 239.68px 0px;" id="el0z71xr0gcia" class="animable"></line><line x1="664.81" y1="226.26" x2="636.47" y2="253.6" style="fill: none; stroke: rgb(38, 50, 56); stroke-linecap: round; stroke-linejoin: round; transform-origin: 650.64px 239.93px 0px;" id="eliahy0gp4ehl" class="animable"></line><line x1="603.22" y1="150.94" x2="669.72" y2="194.56" style="fill: none; stroke: rgb(38, 50, 56); stroke-linecap: round; stroke-linejoin: round; transform-origin: 636.47px 172.75px 0px;" id="el02dk0l2m50bj" class="animable"></line><line x1="614.92" y1="154.66" x2="664.93" y2="187.11" style="fill: none; stroke: rgb(38, 50, 56); stroke-linecap: round; stroke-linejoin: round; transform-origin: 639.925px 170.885px 0px;" id="el55tc6l2waiw" class="animable"></line><line x1="585.13" y1="187.11" x2="659.08" y2="215.31" style="fill: none; stroke: rgb(38, 50, 56); stroke-linecap: round; stroke-linejoin: round; transform-origin: 622.105px 201.21px 0px;" id="eluw385ury1mp" class="animable"></line><line x1="590.98" y1="192.97" x2="633.54" y2="208.39" style="fill: none; stroke: rgb(38, 50, 56); stroke-linecap: round; stroke-linejoin: round; transform-origin: 612.26px 200.68px 0px;" id="elkoi332vp4a8" class="animable"></line><line x1="464.36" y1="100.93" x2="540.44" y2="146.68" style="fill: none; stroke: rgb(38, 50, 56); stroke-linecap: round; stroke-linejoin: round; transform-origin: 502.4px 123.805px 0px;" id="eln9bncy56k5i" class="animable"></line><line x1="478.19" y1="112.63" x2="533.52" y2="147.74" style="fill: none; stroke: rgb(38, 50, 56); stroke-linecap: round; stroke-linejoin: round; transform-origin: 505.855px 130.185px 0px;" id="el7a97wlrizbn" class="animable"></line><line x1="482.98" y1="87.63" x2="546.82" y2="128.06" style="fill: none; stroke: rgb(38, 50, 56); stroke-linecap: round; stroke-linejoin: round; transform-origin: 514.9px 107.845px 0px;" id="elnnjx8lnznp" class="animable"></line><line x1="83.44" y1="191.9" x2="149.94" y2="152" style="fill: none; stroke: rgb(38, 50, 56); stroke-linecap: round; stroke-linejoin: round; transform-origin: 116.69px 171.95px 0px;" id="el9r0mjk39gdn" class="animable"></line><line x1="140.9" y1="150.94" x2="96.74" y2="178.6" style="fill: none; stroke: rgb(38, 50, 56); stroke-linecap: round; stroke-linejoin: round; transform-origin: 118.82px 164.77px 0px;" id="el42nqcetatjz" class="animable"></line><line x1="287.73" y1="101.99" x2="217.51" y2="146.15" style="fill: none; stroke: rgb(38, 50, 56); stroke-linecap: round; stroke-linejoin: round; transform-origin: 252.62px 124.07px 0px;" id="elkqdp3myytod" class="animable"></line><line x1="257.41" y1="126.46" x2="223.89" y2="148.28" style="fill: none; stroke: rgb(38, 50, 56); stroke-linecap: round; stroke-linejoin: round; transform-origin: 240.65px 137.37px 0px;" id="elsx7qo0p8faa" class="animable"></line><line x1="265.92" y1="89.22" x2="201.55" y2="128.59" style="fill: none; stroke: rgb(38, 50, 56); stroke-linecap: round; stroke-linejoin: round; transform-origin: 233.735px 108.905px 0px;" id="elr19ea95bpx" class="animable"></line><line x1="94.08" y1="216.37" x2="163.24" y2="190.31" style="fill: none; stroke: rgb(38, 50, 56); stroke-linecap: round; stroke-linejoin: round; transform-origin: 128.66px 203.34px 0px;" id="elhd1wqs4ob38" class="animable"></line><line x1="99.94" y1="217.97" x2="147.82" y2="200.41" style="fill: none; stroke: rgb(38, 50, 56); stroke-linecap: round; stroke-linejoin: round; transform-origin: 123.88px 209.19px 0px;" id="elgenkias2tri" class="animable"></line></g><defs>     <filter id="active" height="200%">         <feMorphology in="SourceAlpha" result="DILATED" operator="dilate" radius="2"></feMorphology>                <feFlood flood-color="#32DFEC" flood-opacity="1" result="PINK"></feFlood>        <feComposite in="PINK" in2="DILATED" operator="in" result="OUTLINE"></feComposite>        <feMerge>            <feMergeNode in="OUTLINE"></feMergeNode>            <feMergeNode in="SourceGraphic"></feMergeNode>        </feMerge>    </filter>    <filter id="hover" height="200%">        <feMorphology in="SourceAlpha" result="DILATED" operator="dilate" radius="2"></feMorphology>                <feFlood flood-color="#ff0000" flood-opacity="0.5" result="PINK"></feFlood>        <feComposite in="PINK" in2="DILATED" operator="in" result="OUTLINE"></feComposite>        <feMerge>            <feMergeNode in="OUTLINE"></feMergeNode>            <feMergeNode in="SourceGraphic"></feMergeNode>        </feMerge>            <feColorMatrix type="matrix" values="0   0   0   0   0                0   1   0   0   0                0   0   0   0   0                0   0   0   1   0 "></feColorMatrix>    </filter></defs></svg>